<svg version="1.1" id="Layer_1" xmlns="http://www.w3.org/2000/svg" xmlns:xlink="http://www.w3.org/1999/xlink" x="0px" y="0px"
	 width="100%" viewBox="0 0 1523 520" enable-background="new 0 0 1523 520" xml:space="preserve">
<path fill="#FFFFFF" opacity="1.000000" stroke="none" 
	d="
M1524.000000,406.531311 
	C1523.053589,407.656464 1521.998169,408.199554 1521.178345,408.987762 
	C1515.766113,414.192413 1509.314331,414.270630 1502.964355,411.879303 
	C1495.966919,409.244202 1493.911743,403.273071 1493.953369,396.118378 
	C1494.081299,374.124817 1493.666138,352.123291 1494.110718,330.137939 
	C1494.438477,313.935120 1479.980591,298.650330 1463.467773,299.974365 
	C1450.780029,300.991669 1437.196045,311.903137 1437.003052,325.682953 
	C1436.658813,350.258911 1436.314209,374.834930 1436.011475,399.411438 
	C1435.919312,406.895050 1429.805298,412.440582 1422.340942,413.125519 
	C1410.626099,414.200470 1404.633057,405.115295 1404.841431,395.839630 
	C1405.335083,373.856415 1404.760010,351.851135 1405.077515,329.861389 
	C1405.322510,312.882782 1390.023438,297.780396 1372.202271,300.062958 
	C1361.094604,301.485687 1350.826294,310.681732 1348.085083,321.294586 
	C1347.281250,324.406616 1347.057739,327.739838 1347.045288,330.973541 
	C1346.959229,353.134155 1347.005493,375.295227 1346.996948,397.456177 
	C1346.994141,404.878967 1342.326904,411.460571 1336.051636,412.949585 
	C1328.616943,414.713715 1320.385986,411.338989 1317.046753,404.953949 
	C1316.334473,403.591919 1316.045776,401.860107 1316.042358,400.297607 
	C1315.983154,373.804565 1315.591553,347.302216 1316.187378,320.822449 
	C1316.450806,309.113495 1321.917725,298.748535 1329.628296,289.965576 
	C1338.485718,279.876251 1348.981323,272.024902 1362.712280,270.033966 
	C1383.666748,266.995605 1403.513916,268.432831 1419.002686,285.505829 
	C1419.540405,286.098419 1420.194580,286.585419 1420.986938,287.293762 
	C1429.392456,276.553558 1440.730835,270.832764 1453.623535,269.354126 
	C1472.619507,267.175507 1490.655029,269.699951 1505.470215,283.830963 
	C1513.504028,291.493774 1519.151611,300.492737 1523.674072,310.294434 
	C1524.000000,342.020905 1524.000000,374.041779 1524.000000,406.531311 
z"/>
<path fill="#FFFFFF" opacity="1.000000" stroke="none" 
	d="
M151.466125,521.000000 
	C150.596100,520.086182 150.435226,518.883667 149.748581,518.305847 
	C145.519485,514.746399 143.978622,510.185852 143.979507,504.794708 
	C144.006180,342.220612 144.026398,179.646530 143.913376,17.072523 
	C143.908646,10.262307 147.452881,5.847174 151.357391,1.244956 
	C155.689255,1.000000 160.378510,1.000000 165.533875,1.000000 
	C166.032867,1.516796 165.884003,2.371458 166.125092,2.501140 
	C172.709625,6.042861 173.993057,12.084897 173.992752,18.799238 
	C173.985580,179.827332 173.961411,340.855438 174.066010,501.883453 
	C174.071060,509.665436 172.195724,516.048218 165.713043,520.708618 
	C161.310745,521.000000 156.621490,521.000000 151.466125,521.000000 
z"/>
<path fill="#FEFEFE" opacity="1.000000" stroke="none" 
	d="
M0.999996,362.468658 
	C1.963220,361.526672 3.373133,361.310303 3.817179,360.538361 
	C6.702342,355.522827 11.678729,353.961426 16.609310,354.225525 
	C22.547853,354.543610 27.504950,357.605133 29.370892,363.928253 
	C29.775978,365.300964 29.966055,366.785065 29.973671,368.219391 
	C30.024986,377.882050 29.561615,387.571625 30.142683,397.199493 
	C30.588085,404.579437 25.701149,409.131165 19.826822,411.563202 
	C14.919884,413.594757 7.333808,410.838867 3.617291,406.055298 
	C2.935032,405.177155 2.255883,404.296570 1.287644,403.708557 
	C1.000000,390.312439 1.000000,376.624878 0.999996,362.468658 
z"/>
<path fill="#FFFFFF" opacity="1.000000" stroke="none" 
	d="
M574.468628,521.000000 
	C574.000000,506.544250 574.000000,492.088531 574.000000,476.569763 
	C583.806702,477.062531 593.594788,476.631226 602.983887,478.363068 
	C608.867981,479.448456 613.408630,484.402496 615.397034,490.829834 
	C618.858337,502.018066 615.189575,511.938995 605.882568,517.574585 
	C603.894775,518.778198 601.575684,519.434692 599.704590,520.671631 
	C591.645752,521.000000 583.291504,521.000000 574.468628,521.000000 
M601.181396,485.015533 
	C594.552612,484.081848 587.923767,483.148132 581.287598,482.213379 
	C581.287598,493.702972 581.287598,503.747620 581.287598,513.999634 
	C585.867615,513.999634 590.168152,514.148315 594.454590,513.965149 
	C601.016174,513.684753 607.848999,508.659668 608.918335,503.022827 
	C610.357300,495.437683 608.342041,488.636322 601.181396,485.015533 
z"/>
<path fill="#FFFFFF" opacity="1.000000" stroke="none" 
	d="
M1377.437500,521.000000 
	C1377.000000,506.398041 1377.000000,491.796082 1377.000000,477.245972 
	C1385.555664,475.416962 1387.155273,482.944885 1390.901611,487.047974 
	C1396.653564,493.347839 1401.777588,500.221039 1407.906738,507.759308 
	C1407.906738,496.872772 1407.906738,487.184418 1407.906738,477.251831 
	C1410.344727,477.251831 1412.412476,477.251831 1414.306030,477.251831 
	C1414.306030,491.570862 1414.306030,505.902435 1414.653076,520.617004 
	C1412.958374,521.000000 1410.916626,521.000000 1408.724854,520.711914 
	C1400.676392,510.606873 1392.778320,500.789978 1384.880127,490.973053 
	C1384.586792,491.207184 1384.293335,491.441284 1384.000000,491.675415 
	C1384.000000,501.450256 1384.000000,511.225128 1384.000000,521.000000 
	C1381.958374,521.000000 1379.916626,521.000000 1377.437500,521.000000 
z"/>
<path fill="#FFFFFF" opacity="1.000000" stroke="none" 
	d="
M934.468506,521.000000 
	C932.908325,519.759644 932.034241,518.169617 930.690796,517.334045 
	C919.347229,510.278595 917.709534,493.085052 926.957703,482.482635 
	C934.688721,473.619598 954.167908,473.500214 961.778259,482.275574 
	C970.448853,492.273529 970.244080,505.682709 961.260803,515.146057 
	C959.305176,517.206238 956.719116,518.667786 954.711670,520.702515 
	C948.312378,521.000000 941.624695,521.000000 934.468506,521.000000 
M938.926941,483.019958 
	C936.658691,484.518890 933.866943,485.587433 932.216919,487.594543 
	C926.441833,494.619446 926.627625,502.594391 932.224304,509.624664 
	C936.515320,515.014771 945.737244,516.311768 952.981201,512.543945 
	C960.097107,508.842743 962.802124,499.760712 959.194336,491.683685 
	C955.689514,483.837311 947.419434,480.141144 938.926941,483.019958 
z"/>
<path fill="#FFFFFF" opacity="1.000000" stroke="none" 
	d="
M723.468384,521.000000 
	C722.533325,520.293823 722.230774,519.309021 721.575439,518.923035 
	C710.674255,512.502869 708.105042,503.018646 710.321228,492.602722 
	C712.474670,482.481873 721.794922,475.901672 732.929749,475.730530 
	C745.258423,475.540955 754.259216,484.405548 755.775391,491.846100 
	C758.086487,503.187744 755.874512,512.752930 743.331604,519.228699 
	C742.933044,519.434509 742.720825,520.000977 742.710815,520.699646 
	C736.645569,521.000000 730.291199,521.000000 723.468384,521.000000 
M727.790283,514.007385 
	C734.075867,516.253845 739.419617,514.848999 744.293213,510.294922 
	C749.534790,505.397064 750.274414,499.216675 748.408386,493.160461 
	C746.441650,486.777008 741.498596,482.600311 734.438171,482.034882 
	C726.274658,481.381165 719.617188,486.215759 717.306335,494.166351 
	C715.064758,501.878662 718.864807,509.668213 727.790283,514.007385 
z"/>
<path fill="#FFFFFF" opacity="1.000000" stroke="none" 
	d="
M1300.468384,521.000000 
	C1299.533325,520.293884 1299.230835,519.309021 1298.575562,518.923096 
	C1287.673706,512.502502 1285.105225,503.018311 1287.321289,492.602814 
	C1289.475098,482.481018 1298.795410,475.901794 1309.929565,475.730530 
	C1322.258667,475.540924 1331.259155,484.405426 1332.775391,491.846039 
	C1335.086426,503.186859 1332.875366,512.752625 1320.331421,519.228760 
	C1319.932861,519.434509 1319.720825,520.001038 1319.710938,520.699707 
	C1313.645630,521.000000 1307.291138,521.000000 1300.468384,521.000000 
M1306.187378,514.715942 
	C1317.107300,517.366089 1327.358276,507.432617 1326.167480,497.307556 
	C1325.283203,489.789276 1319.435913,482.652740 1311.787476,482.004303 
	C1303.056274,481.264038 1295.731812,486.536987 1294.119629,495.279358 
	C1292.545044,503.818085 1297.219360,512.469788 1306.187378,514.715942 
z"/>
<path fill="#FFFFFF" opacity="1.000000" stroke="none" 
	d="
M415.437500,521.000000 
	C415.000000,506.557922 415.000000,492.115845 415.000000,477.235107 
	C423.319336,477.235107 431.610809,476.538147 439.719391,477.456238 
	C446.178345,478.187500 450.124054,483.212738 450.902222,489.721283 
	C451.661682,496.073730 449.752625,501.613098 443.754486,505.036377 
	C443.193481,505.356567 442.726196,505.841003 442.530853,505.997101 
	C445.529327,510.889160 448.470490,515.687744 451.705841,520.743164 
	C449.299988,521.000000 446.599976,521.000000 443.748474,520.708191 
	C441.003662,516.377197 438.464417,512.301208 435.764984,508.334167 
	C435.301514,507.653137 434.168182,507.095123 433.322906,507.064178 
	C429.598480,506.927795 425.866180,507.005219 422.000000,507.005219 
	C422.000000,512.089722 422.000000,516.544861 422.000000,521.000000 
	C419.958344,521.000000 417.916656,521.000000 415.437500,521.000000 
M431.317078,483.000000 
	C428.239349,483.000000 425.161621,483.000000 422.334534,483.000000 
	C422.334534,489.430603 422.334534,495.166260 422.334534,500.999969 
	C426.484375,500.999969 430.307526,501.141144 434.115417,500.960510 
	C437.979492,500.777252 441.452301,499.689819 442.999084,495.542572 
	C445.715759,488.258636 441.285706,483.082581 431.317078,483.000000 
z"/>
<path fill="#FFFFFF" opacity="1.000000" stroke="none" 
	d="
M488.444153,521.000000 
	C489.992401,516.085632 491.841522,511.107056 494.007416,506.270386 
	C498.341095,496.593079 502.848175,486.993469 507.311462,477.301453 
	C512.539795,475.915894 515.541016,477.437378 517.776672,483.057739 
	C522.511230,494.960449 528.284180,506.449280 533.562805,518.138794 
	C533.833130,518.737488 533.461365,519.626221 533.694275,520.689941 
	C531.958313,521.000000 529.916687,521.000000 527.728821,520.693970 
	C526.374512,517.800537 525.419067,515.047180 523.867676,512.685181 
	C522.866150,511.160248 521.049805,509.261902 519.497437,509.165894 
	C513.104980,508.770416 506.673859,509.000427 499.874908,509.000427 
	C498.550507,513.101746 497.275238,517.050842 496.000000,521.000000 
	C493.629425,521.000000 491.258881,521.000000 488.444153,521.000000 
M515.966797,494.712036 
	C514.426941,491.774750 512.887146,488.837463 510.949982,485.142273 
	C508.010742,491.720428 505.394989,497.574677 502.606659,503.815125 
	C508.649567,503.815125 514.071533,503.815125 519.689026,503.815125 
	C518.448242,501.017944 517.224121,498.258392 515.966797,494.712036 
z"/>
<path fill="#FFFFFF" opacity="1.000000" stroke="none" 
	d="
M853.468506,521.000000 
	C851.025635,519.087830 849.051208,517.175598 846.959473,515.149780 
	C847.753357,513.527710 848.593933,511.810272 849.582092,509.791321 
	C855.825012,514.076111 862.439697,516.969971 869.964722,513.927307 
	C871.588257,513.270813 873.820923,511.190186 873.731567,509.907837 
	C873.594055,507.935486 872.127991,505.209412 870.444275,504.369598 
	C867.065002,502.683960 863.175293,501.990753 859.465088,501.005280 
	C848.557861,498.108276 844.883057,489.730865 850.231812,481.938904 
	C852.171265,479.113617 856.357788,476.684540 859.784485,476.270050 
	C866.496155,475.458191 873.606201,474.924622 879.946106,479.770447 
	C879.248474,481.315460 878.430298,483.127319 877.772949,484.583130 
	C872.777405,483.686920 868.078308,482.829895 863.371704,482.015808 
	C862.725037,481.903961 861.794250,481.723633 861.415588,482.055237 
	C859.214111,483.982971 856.310425,485.742584 855.380615,488.212677 
	C854.936584,489.392090 857.945801,492.853241 860.054688,493.795868 
	C863.796204,495.468262 868.111145,495.797668 872.066528,497.062866 
	C882.774536,500.487915 883.015259,510.497070 878.743774,516.433411 
	C877.513855,518.142639 875.223877,519.088989 873.709961,520.692566 
	C867.312378,521.000000 860.624695,521.000000 853.468506,521.000000 
z"/>
<path fill="#FFFFFF" opacity="1.000000" stroke="none" 
	d="
M1463.468506,521.000000 
	C1461.026367,519.088379 1459.052612,517.176819 1456.959473,515.149597 
	C1457.752930,513.528137 1458.593140,511.811401 1459.581665,509.791168 
	C1465.824951,514.075989 1472.439575,516.969971 1479.964600,513.927246 
	C1481.588257,513.270752 1483.820923,511.190247 1483.731567,509.907806 
	C1483.594238,507.935577 1482.128052,505.209473 1480.444214,504.369568 
	C1477.064941,502.683990 1473.175293,501.990814 1469.465088,501.005341 
	C1458.557617,498.108215 1454.883179,489.730713 1460.231812,481.938812 
	C1462.171265,479.113525 1466.357666,476.684448 1469.784546,476.269958 
	C1476.496216,475.458099 1483.606201,474.924683 1489.946167,479.770477 
	C1489.250366,481.311493 1488.433228,483.120941 1487.772949,484.583130 
	C1482.777344,483.686920 1478.078247,482.829834 1473.371704,482.015808 
	C1472.724976,481.903992 1471.794312,481.723755 1471.415649,482.055298 
	C1469.214111,483.982971 1466.310303,485.742493 1465.380371,488.212585 
	C1464.936401,489.391968 1467.945801,492.853271 1470.054810,493.795898 
	C1473.796265,495.468323 1478.111206,495.797668 1482.066772,497.062927 
	C1492.774414,500.488037 1493.015381,510.496948 1488.743530,516.433472 
	C1487.513550,518.142578 1485.223755,519.089111 1483.709961,520.692627 
	C1477.312378,521.000000 1470.624634,521.000000 1463.468506,521.000000 
z"/>
<path fill="#FFFFFF" opacity="1.000000" stroke="none" 
	d="
M1091.468384,521.000000 
	C1090.851929,520.369080 1090.895264,519.344971 1090.527344,519.165894 
	C1084.488159,516.226562 1082.530640,510.571198 1082.155884,504.752289 
	C1081.570557,495.666626 1082.000854,486.515594 1082.000854,477.198639 
	C1084.446533,477.198639 1086.514893,477.198639 1089.000000,477.198639 
	C1089.000000,484.967072 1088.761475,492.597595 1089.087158,500.203949 
	C1089.290161,504.944244 1089.689209,510.122559 1094.304443,512.974915 
	C1103.276123,518.519775 1112.673828,512.993530 1112.958252,502.042725 
	C1113.169678,493.903687 1113.000000,485.754791 1113.000000,477.305725 
	C1115.254761,477.305725 1117.320068,477.305725 1120.438965,477.305725 
	C1119.944336,488.153229 1120.115112,499.236053 1118.575195,510.075867 
	C1118.041626,513.832397 1113.264526,516.986145 1110.712891,520.707642 
	C1104.645630,521.000000 1098.291138,521.000000 1091.468384,521.000000 
z"/>
<path fill="#FFFFFF" opacity="1.000000" stroke="none" 
	d="
M1175.437500,521.000000 
	C1175.000000,508.524078 1175.000000,496.048157 1175.000000,483.169617 
	C1170.054321,483.169617 1165.304932,483.169617 1160.282959,483.169617 
	C1160.282959,481.035919 1160.282959,479.296814 1160.282959,477.276398 
	C1172.245850,477.276398 1184.329590,477.276398 1196.797974,477.276398 
	C1196.874023,478.933472 1196.953979,480.674957 1197.052124,482.812653 
	C1192.106567,482.812653 1187.348877,482.812653 1182.000000,482.812653 
	C1182.000000,493.774536 1182.031616,504.366180 1181.968872,514.957275 
	C1181.958496,516.717407 1181.537354,518.475159 1181.653076,520.617004 
	C1179.958374,521.000000 1177.916626,521.000000 1175.437500,521.000000 
z"/>
<path fill="#FFFFFF" opacity="1.000000" stroke="none" 
	d="
M1011.468628,521.000000 
	C1011.000000,506.523560 1011.000000,492.047089 1011.000000,477.285950 
	C1013.292603,477.285950 1015.362488,477.285950 1017.823364,477.285950 
	C1017.823364,489.251831 1017.823364,501.335846 1017.823364,513.820740 
	C1025.935425,513.820740 1033.680786,513.820740 1042.190552,513.820740 
	C1041.860474,516.273315 1041.592163,518.266846 1041.661987,520.630127 
	C1031.979126,521.000000 1021.958191,521.000000 1011.468628,521.000000 
z"/>
<path fill="#FFFFFF" opacity="1.000000" stroke="none" 
	d="
M1237.437500,521.000000 
	C1237.000000,506.526093 1237.000000,492.052216 1237.000000,477.289734 
	C1239.285767,477.289734 1241.355347,477.289734 1244.000000,477.289734 
	C1244.000000,489.594360 1244.029541,502.026581 1243.968994,514.458374 
	C1243.959595,516.384583 1243.537354,518.308838 1243.653076,520.617004 
	C1241.958374,521.000000 1239.916626,521.000000 1237.437500,521.000000 
z"/>
<path fill="#FFFFFF" opacity="1.000000" stroke="none" 
	d="
M660.437500,521.000000 
	C660.000000,506.526093 660.000000,492.052155 660.000000,477.289703 
	C662.285706,477.289703 664.355347,477.289703 667.000000,477.289703 
	C667.000000,489.594238 667.029602,502.026398 666.968994,514.458130 
	C666.959656,516.384399 666.537415,518.308655 666.653076,520.616943 
	C664.958313,521.000000 662.916687,521.000000 660.437500,521.000000 
z"/>
<path fill="#FFFFFF" opacity="1.000000" stroke="none" 
	d="
M705.302490,272.710815 
	C713.257996,276.980408 721.535339,280.125214 728.368103,285.210938 
	C741.999634,295.357056 750.789795,309.280060 754.305054,325.965149 
	C755.617004,332.192719 756.009949,339.005890 754.960815,345.238800 
	C753.674805,352.879517 748.512085,355.989410 740.821350,355.993286 
	C708.993896,356.009277 677.166382,356.000000 645.338928,356.000000 
	C643.688660,356.000000 642.038391,356.000000 638.612122,356.000000 
	C641.678772,361.713928 643.526367,367.126526 646.968262,371.187927 
	C656.097778,381.960571 668.055664,388.058228 682.312317,387.860138 
	C693.821533,387.700226 703.751953,382.837250 712.434753,375.171448 
	C720.218994,368.298981 727.652832,368.422333 733.236816,373.871246 
	C739.172485,379.663300 739.753967,390.985687 733.133972,397.496704 
	C721.181458,409.252411 707.029236,415.182526 690.438965,417.172516 
	C668.646179,419.786438 649.531189,413.876587 633.061951,400.275238 
	C619.186218,388.815796 610.616638,373.813507 607.878845,355.544373 
	C605.404602,339.033752 607.386719,323.279327 615.175415,308.735168 
	C625.975586,288.567413 642.922852,275.228699 665.256226,270.261169 
	C678.363098,267.345856 691.951904,267.792877 705.302490,272.710815 
M648.432556,314.043640 
	C645.261108,319.303528 642.089661,324.563385 638.341797,330.779358 
	C667.700195,330.779358 695.234741,330.779358 722.796814,330.779358 
	C718.735107,312.282867 703.760620,301.948730 688.565247,299.283752 
	C673.256836,296.598969 659.598206,301.656738 648.432556,314.043640 
z"/>
<path fill="#FFFFFF" opacity="1.000000" stroke="none" 
	d="
M999.970581,412.516724 
	C993.480957,413.076508 986.911011,414.493591 982.616089,408.082794 
	C980.889587,405.505890 979.460999,402.729401 977.824158,399.918976 
	C971.123169,406.743073 961.894653,410.831757 951.397888,412.217194 
	C931.240479,414.877747 912.171204,412.738739 895.393677,399.908966 
	C882.520386,390.064789 871.923584,377.965057 868.346436,362.199615 
	C860.631165,328.195465 868.353638,300.870697 899.262634,279.436188 
	C909.523865,272.320312 921.251343,269.232452 933.951660,268.850525 
	C950.781067,268.344452 966.114563,271.850403 979.777588,281.964386 
	C995.990356,293.965820 1007.373718,309.436981 1008.722839,329.772858 
	C1010.259155,352.930939 1009.850586,376.230072 1009.875366,399.468292 
	C1009.881897,405.571777 1006.324158,410.116333 999.970581,412.516724 
M969.476807,315.979431 
	C968.980103,315.154999 968.612488,314.209045 967.967773,313.523895 
	C949.654724,294.063293 920.195312,295.313110 904.017761,318.125580 
	C897.061646,327.934540 895.426331,338.997986 898.072144,350.530792 
	C902.042542,367.837372 917.275452,381.241455 935.643188,381.911469 
	C951.662476,382.495850 963.632507,375.482758 972.764771,362.055695 
	C979.735657,351.806488 980.527466,326.598175 969.476807,315.979431 
z"/>
<path fill="#FFFFFF" opacity="1.000000" stroke="none" 
	d="
M469.992188,223.064728 
	C478.150787,216.052612 488.120209,215.761917 493.948700,222.750015 
	C496.226318,225.480759 497.705872,229.681061 497.821930,233.267929 
	C498.263550,246.916733 498.000000,260.588348 498.000000,274.959503 
	C508.673370,268.761536 520.121399,268.727905 531.657349,268.971344 
	C545.603882,269.265625 557.279236,274.644043 567.496521,283.933014 
	C576.887817,292.471039 583.507996,302.609558 586.450439,314.978760 
	C587.311401,318.598175 587.912720,322.374817 587.933228,326.083282 
	C588.064392,349.744385 588.002319,373.406555 587.998718,397.068390 
	C587.997559,404.767883 583.828430,410.990540 577.430115,412.871094 
	C570.573914,414.886292 561.676453,411.532440 558.184814,405.306671 
	C557.290527,403.712128 557.054443,401.573395 557.047974,399.682861 
	C556.973022,377.687622 557.218872,355.688660 556.883057,333.698334 
	C556.763062,325.841553 555.298706,318.290039 550.246948,311.405823 
	C540.709717,298.409119 520.969055,296.238464 509.003845,306.483734 
	C501.370178,313.020111 497.838043,321.252625 497.935089,331.389771 
	C498.145630,353.383240 498.004547,375.380127 497.997467,397.375610 
	C497.995056,404.867645 493.433105,411.377441 487.129242,412.933441 
	C479.754883,414.753693 471.448669,411.414978 468.080414,405.022797 
	C467.294586,403.531403 467.044281,401.603271 467.042694,399.875610 
	C466.990997,343.720490 466.959717,287.565216 467.125427,231.410553 
	C467.133240,228.755920 468.969910,226.106674 469.992188,223.064728 
z"/>
<path fill="#FFFFFF" opacity="1.000000" stroke="none" 
	d="
M1167.221191,386.626953 
	C1160.011475,376.762604 1154.437622,366.687927 1152.827515,354.578918 
	C1150.161377,334.529877 1152.178955,315.576813 1164.654419,298.925659 
	C1174.318726,286.026703 1186.360474,275.551819 1202.175537,271.570892 
	C1226.500000,265.448059 1249.548096,268.095642 1269.627808,285.041443 
	C1283.820557,297.019196 1292.549438,311.714081 1295.093872,330.307098 
	C1298.058716,351.971649 1293.061890,371.014984 1278.820801,387.761932 
	C1265.008789,404.004333 1247.826538,412.380157 1226.380859,413.151184 
	C1208.331421,413.800079 1192.432739,408.972870 1178.479980,397.753815 
	C1174.478760,394.536621 1171.086548,390.562195 1167.221191,386.626953 
M1183.999756,332.641388 
	C1183.667114,334.046936 1183.128174,335.438690 1183.033203,336.860138 
	C1181.966064,352.815948 1188.000977,365.736725 1200.889893,374.882385 
	C1214.558350,384.580994 1233.618896,384.802338 1248.206543,373.501343 
	C1262.817139,362.182556 1266.007202,347.401215 1263.178711,331.597107 
	C1261.222656,320.667236 1254.881104,312.665833 1246.052612,306.699280 
	C1237.433838,300.874603 1227.520630,298.304657 1217.278931,300.425934 
	C1200.003174,304.004089 1188.663940,314.494324 1183.999756,332.641388 
z"/>
<path fill="#FFFFFF" opacity="1.000000" stroke="none" 
	d="
M220.999603,163.000000 
	C220.999603,265.446228 220.895752,367.392700 221.170547,469.338196 
	C221.196213,478.862701 213.715088,484.943390 206.708054,484.993866 
	C199.298645,485.047272 191.935623,479.575165 191.944122,469.119507 
	C192.034851,357.345215 192.000107,245.570816 192.001465,133.796448 
	C192.001572,124.197205 196.948654,120.303383 204.930984,118.124405 
	C210.626358,116.569702 217.519241,121.109581 220.206879,127.799072 
	C220.729935,129.100906 220.957321,130.604202 220.966034,132.016754 
	C221.028595,142.177505 220.999573,152.338852 220.999603,163.000000 
z"/>
<path fill="#FFFFFF" opacity="1.000000" stroke="none" 
	d="
M423.083710,413.000000 
	C404.058899,414.636536 384.431061,394.336182 384.743530,375.217346 
	C385.522278,327.573334 384.999512,279.908051 385.000458,232.251297 
	C385.000610,224.127457 390.345825,218.109406 397.651123,218.000000 
	C409.226288,217.826614 415.848724,222.814911 415.963501,232.139740 
	C416.112762,244.267014 415.999969,256.397491 415.999969,269.000000 
	C422.417725,269.000000 428.583313,269.514709 434.627441,268.877594 
	C443.376190,267.955414 449.657166,277.047119 450.188171,283.606567 
	C450.782684,290.950439 443.213348,300.027466 434.809692,300.003387 
	C428.683289,299.985870 422.556824,299.999969 416.000000,299.999969 
	C416.000000,305.961792 416.000000,311.578583 416.000000,317.195404 
	C416.000000,335.358276 415.990906,353.521179 416.004608,371.684052 
	C416.009857,378.646637 419.375427,381.862366 426.366516,382.039825 
	C430.602356,382.147308 434.920746,382.204712 439.038513,383.066345 
	C446.684814,384.666260 450.978912,393.077972 449.977081,400.441467 
	C448.935791,408.095123 442.850555,412.998016 434.567627,412.999847 
	C430.901703,413.000671 427.235779,413.000000 423.083710,413.000000 
z"/>
<path fill="#FFFFFF" opacity="1.000000" stroke="none" 
	d="
M1101.020386,413.000000 
	C1074.092163,413.291138 1055.277954,400.012360 1041.082764,379.066467 
	C1034.145874,368.830627 1031.037964,357.294647 1030.886841,344.773407 
	C1030.733643,332.065186 1031.618408,319.721100 1037.976807,308.387848 
	C1049.301025,288.203247 1065.219360,273.946075 1088.767212,270.029297 
	C1101.792236,267.862762 1114.743286,267.983124 1127.293701,272.973785 
	C1131.678467,274.717377 1134.729370,279.115051 1135.040649,283.780701 
	C1135.964233,297.620911 1130.555908,300.609833 1122.964722,302.266724 
	C1118.989380,303.134338 1114.368408,301.898834 1110.208862,300.903198 
	C1098.642334,298.134552 1088.105835,300.953156 1079.041992,307.714996 
	C1067.936401,316.000183 1061.814575,327.379913 1061.964233,341.729950 
	C1062.160156,360.506439 1076.270264,376.896240 1093.723389,381.070587 
	C1101.666260,382.970215 1109.196045,381.692841 1116.772705,379.632263 
	C1125.853027,377.162811 1134.539062,383.926636 1135.097534,393.174347 
	C1135.883667,406.195435 1129.312866,410.067444 1117.715210,411.912109 
	C1112.391602,412.758881 1106.918701,412.666473 1101.020386,413.000000 
z"/>
<path fill="#FFFFFF" opacity="1.000000" stroke="none" 
	d="
M268.999786,300.000000 
	C268.999725,344.829926 268.938293,389.160034 269.054321,433.489655 
	C269.076080,441.800323 263.660248,446.557770 258.911743,447.858887 
	C250.769531,450.089905 243.703110,446.503082 240.798843,439.174622 
	C240.221680,437.718201 240.032730,436.021637 240.031769,434.435577 
	C239.994659,373.106964 240.059296,311.778198 239.924881,250.449844 
	C239.908264,242.874207 245.892014,236.734543 254.204605,236.085602 
	C261.958557,235.480270 268.940216,242.452972 268.977142,250.503754 
	C269.052063,266.835510 268.999695,283.167877 268.999786,300.000000 
z"/>
<path fill="#FFFFFF" opacity="1.000000" stroke="none" 
	d="
M853.000000,281.353577 
	C853.000000,295.306458 848.289612,300.196808 834.744751,299.927765 
	C826.334656,299.760773 819.092468,301.410431 813.205933,308.105988 
	C809.215576,312.644745 807.079651,317.633484 807.051270,323.427948 
	C806.930481,348.069733 807.004028,372.712433 806.997620,397.354797 
	C806.995667,404.877136 802.487488,411.337433 796.165710,412.925964 
	C788.832886,414.768524 780.476562,411.458557 777.107300,405.069489 
	C776.252136,403.447723 776.049133,401.327515 776.044434,399.435089 
	C775.978821,373.127869 776.057678,346.820251 775.973572,320.513123 
	C775.936340,308.875824 779.687439,298.489838 786.989441,289.733765 
	C794.338074,280.921631 802.904785,272.879700 814.723999,270.944275 
	C824.055054,269.416290 833.764954,268.615387 843.121826,269.483521 
	C847.984863,269.934753 852.350647,274.779999 853.000000,281.353577 
z"/>
<path fill="#FEFEFE" opacity="1.000000" stroke="none" 
	d="
M287.026733,388.951721 
	C287.350494,380.901917 287.468536,373.327942 288.065613,365.791931 
	C288.512146,360.156189 293.724548,355.454590 300.213409,354.100281 
	C304.395813,353.227386 311.843109,356.135223 313.801575,360.120697 
	C315.388367,363.349945 316.665955,367.034393 316.859924,370.583618 
	C317.303711,378.703003 316.678925,386.879242 317.083588,395.002747 
	C317.562103,404.608368 310.893341,412.133057 302.306152,412.009949 
	C292.896332,411.875031 287.698669,405.832764 287.045502,395.425842 
	C286.920837,393.439301 287.027039,391.438232 287.026733,388.951721 
z"/>
<path fill="#FFFFFF" opacity="1.000000" stroke="none" 
	d="
M112.738991,484.997833 
	C102.657707,484.909576 97.000351,479.334290 97.000336,469.905914 
	C97.000153,357.593445 97.077042,245.280792 96.835007,132.968826 
	C96.818069,125.114113 102.614029,118.695168 111.147850,118.061386 
	C118.415367,117.521652 125.703445,124.868546 125.993637,132.620056 
	C126.031013,133.618469 125.999146,134.619492 125.999146,135.619308 
	C125.999153,246.265427 125.999222,356.911560 125.999054,467.557678 
	C125.999039,477.976868 123.259666,481.698090 112.738991,484.997833 
z"/>
<path fill="#FFFFFF" opacity="1.000000" stroke="none" 
	d="
M49.000183,298.000000 
	C49.000233,281.840851 49.159336,266.179474 48.939327,250.523422 
	C48.811954,241.459656 56.608322,235.878830 63.702534,236.233994 
	C70.721283,236.585373 78.005302,240.724533 78.003944,250.505280 
	C77.995461,311.642578 78.008522,372.779846 77.990295,433.917145 
	C77.987541,443.139099 72.560486,448.032196 62.548229,447.999969 
	C54.311432,447.973450 49.004101,442.480469 49.002995,433.934967 
	C48.997158,388.789978 49.000214,343.644989 49.000183,298.000000 
z"/>
</svg>